<?xml version="1.0" encoding="utf-8"?>
<!-- Generator: Adobe Illustrator 22.1.0, SVG Export Plug-In . SVG Version: 6.00 Build 0)  -->
<svg version="1.1" id="Layer_1" xmlns="http://www.w3.org/2000/svg" xmlns:xlink="http://www.w3.org/1999/xlink" x="0px" y="0px"
	 viewBox="0 0 1680.2 256" style="enable-background:new 0 0 1680.2 256;" xml:space="preserve">
<style type="text/css">
	.st0{fill:url(#SVGID_1_);}
	.st1{opacity:0.3;fill:url(#SVGID_2_);}
	.st2{opacity:0.4;fill:url(#SVGID_3_);}
	.st3{opacity:0.4;fill:url(#SVGID_4_);}
	.st4{opacity:0.4;}
	.st5{fill:url(#SVGID_5_);}
	.st6{fill:url(#SVGID_6_);}
	.st7{fill:#37AC70;}
</style>
<g>
	<linearGradient id="SVGID_1_" gradientUnits="userSpaceOnUse" x1="5.3024" y1="128.6644" x2="244.353" y2="128.6644">
		<stop  offset="0" style="stop-color:#39B54A"/>
		<stop  offset="0.5269" style="stop-color:#21AC78"/>
		<stop  offset="1" style="stop-color:#00A79D"/>
	</linearGradient>
	<path class="st0" d="M175.5,13.2c-59.8-28-130.9-2.3-158.9,57.5c-26,55.5-5.6,120.7,45.3,152.2L51.5,245l25.9,10.5l9.7-20.8
		l13.2-28.1l7.1-15l-5-2.4l5.1-10.9c27.4,8.4,57.6-4,70.8-30.2l-26.5-12.9c-7.4,14.3-24.9,20.3-39.6,13.5
		c-15.1-7.1-21.6-25.1-14.5-40.1c7.1-15.1,25.1-21.6,40.1-14.5c7.3,3.4,12.6,9.5,15.3,16.5l26.6-12.8c-5.6-12.9-15.7-23.9-29.4-30.4
		c-29.8-14-65.4-1.1-79.3,28.7c-12.8,27.2-3.1,59.2,21.4,75.2l-5.1,10.9l-5-2.4l-7.1,15c-35.6-24.1-49.4-71-30.6-111.1
		C65.2,39.3,118.1,20.2,162.5,41c44.4,20.8,63.5,73.7,42.7,118.1c-16.1,34.3-51.3,53.4-86.9,50.8l-13.7,29.2
		c51.7,8.9,105-17.1,128.4-67C261,112.3,235.3,41.2,175.5,13.2z"/>
	
		<linearGradient id="SVGID_2_" gradientUnits="userSpaceOnUse" x1="644.9011" y1="-259.2138" x2="650.5024" y2="-265.7154" gradientTransform="matrix(1.1999 -0.3247 0.3012 1.1132 -599.6978 680.4462)">
		<stop  offset="0" style="stop-color:#00A79D;stop-opacity:0"/>
		<stop  offset="1" style="stop-color:#000000"/>
	</linearGradient>
	<path class="st1" d="M92.2,171.1l-5.1,11l15.2,7.1l5.1-10.9C102.3,177.1,96.3,174.4,92.2,171.1z"/>
	<linearGradient id="SVGID_3_" gradientUnits="userSpaceOnUse" x1="96.9995" y1="146.1858" x2="164.6112" y2="146.1858">
		<stop  offset="0" style="stop-color:#00A79D;stop-opacity:0"/>
		<stop  offset="1" style="stop-color:#000000"/>
	</linearGradient>
	<path class="st2" d="M132.9,159.4c13.2,0,24.9-7.1,31.7-17.8l-13-6.3c-7.4,14.3-24.9,20.3-39.6,13.5c-7.1-3.3-12.2-9-15-15.7
		C102.4,148.4,116.4,159.4,132.9,159.4z"/>
	<linearGradient id="SVGID_4_" gradientUnits="userSpaceOnUse" x1="111.5025" y1="194.6286" x2="202.2535" y2="194.6286">
		<stop  offset="0" style="stop-color:#00A79D;stop-opacity:0"/>
		<stop  offset="1" style="stop-color:#000000"/>
	</linearGradient>
	<path class="st3" d="M202.3,164.8c-17.2,30.7-50.3,47.5-83.9,45l-6.8,14.5c0.7,0,1.4,0,2.2,0C153.2,224.4,187.1,199.9,202.3,164.8z
		"/>
	<g class="st4">
		<linearGradient id="SVGID_5_" gradientUnits="userSpaceOnUse" x1="35.7178" y1="207.7957" x2="62.1558" y2="230.1883">
			<stop  offset="0" style="stop-color:#00A79D;stop-opacity:0"/>
			<stop  offset="1" style="stop-color:#000000"/>
		</linearGradient>
		<polygon class="st5" points="59.4,228.1 59.6,227.7 59.4,228.1 		"/>
		<linearGradient id="SVGID_6_" gradientUnits="userSpaceOnUse" x1="52.1259" y1="187.7121" x2="78.9536" y2="210.4347">
			<stop  offset="0" style="stop-color:#00A79D;stop-opacity:0"/>
			<stop  offset="1" style="stop-color:#000000"/>
		</linearGradient>
		<path class="st6" d="M75,194.8c-11.2-7.6-20.2-17.4-26.7-28.5l-19.1,26.7c8.7,11.7,19.7,21.9,32.7,30l18.6-39.8L75,194.8z"/>
	</g>
</g>
<g>
	<path class="st7" d="M380.9,107.8c-3.5-4.9-10.1-8.6-17.3-8.6c-17.5,0-28.1,11.7-28.1,28.8c0,17.1,10.5,28.7,28.1,28.7
		c7.7,0,13.3-4,17.3-8.6l23.1,24.3c-11,11.2-27.1,15.2-40.4,15.2c-35.1,0-63.1-23.4-63.1-59.6c0-36.2,28.1-59.6,63.1-59.6
		c13.3,0,29.5,4,40.4,15.2L380.9,107.8z"/>
	<path class="st7" d="M475.6,68.3c35.1,0,63.1,23.4,63.1,59.6c0,36.2-28.1,59.6-63.1,59.6c-35.1,0-63.1-23.4-63.1-59.6
		C412.5,91.7,440.5,68.3,475.6,68.3z M475.6,156.7c17.5,0,28.1-11.7,28.1-28.7c0-17.1-10.5-28.8-28.1-28.8c-17.5,0-28,11.7-28,28.8
		C447.5,145,458,156.7,475.6,156.7z"/>
	<path class="st7" d="M559.2,71.1h33.7v15.4h0.5c4.7-8.9,16.1-18.2,33.2-18.2c15.9,0,29,6.5,35.1,20.3c8.2-14.5,19.2-20.3,36-20.3
		c30.9,0,40.2,21.7,40.2,49.3v67.1h-35.1v-66.2c0-10.5-4-19.4-15.4-19.4c-16.1,0-21.3,11.5-21.3,25.5v60.1H631v-60.1
		c0-8.4,0.5-25.5-15.7-25.5c-18.2,0-21,14.3-21,29v56.6h-35.1V71.1z"/>
	<path class="st7" d="M765.8,71.1h32.3v15h0.5c5.4-8.2,18.9-17.8,34.8-17.8c33.7,0,55.9,24.3,55.9,58.7c0,31.6-19.6,60.5-51.9,60.5
		c-14.5,0-28.1-4-36-15h-0.5V238h-35.1V71.1z M826.1,156.7c17.5,0,28-11.7,28-28.7c0-17.1-10.5-28.8-28-28.8
		c-17.5,0-28.1,11.7-28.1,28.8C798.1,145,808.6,156.7,826.1,156.7z"/>
	<path class="st7" d="M981.1,170.5h-0.5c-7.7,12.2-21.7,17.1-36,17.1c-21.3,0-40.4-12.2-40.4-35.1c0-39.3,47.7-40,76.9-40
		c0-12.4-10.3-20.3-22.4-20.3c-11.5,0-21,5.1-28.5,13.6l-18.7-19.2c12.9-12.2,31.6-18.2,50-18.2c40.9,0,51.9,20.8,51.9,58.7v57.7
		h-32.3V170.5z M972.5,135c-10.8,0-34.6,0.9-34.6,16.4c0,8.4,8.9,12.4,16.6,12.4c13.8,0,26.6-7.2,26.6-21.3V135H972.5z"/>
	<path class="st7" d="M1035.3,71.1h35.1v18.2h0.5c7.5-13.8,17.3-21,32.7-21c4,0,8.4,0.2,11.7,1.2v32c-4.9-1.4-9.8-2.3-15-2.3
		c-26.7,0-29.9,15.4-29.9,38.1v47.5h-35.1V71.1z"/>
	<path class="st7" d="M1233.8,165.1c-11.2,14.3-29.7,22.4-47.9,22.4c-35.1,0-63.1-23.4-63.1-59.6c0-36.2,28-59.6,63.1-59.6
		c32.7,0,53.3,23.4,53.3,59.6v11h-81.3c2.8,13.3,12.9,22,26.4,22c11.5,0,19.2-5.8,25-13.8L1233.8,165.1z M1204.1,115.1
		c0.2-11.7-8.9-21.5-21.5-21.5c-15.4,0-23.8,10.5-24.8,21.5H1204.1z"/>
	<path d="M1343.1,103.4c-7.7-8.2-15.9-12.4-27.6-12.4c-22.9,0-34.6,18.5-34.6,39.3c0,20.8,14,37.6,35.8,37.6
		c11.7,0,19.9-4.2,26.9-12.4l15,15c-11,12.2-25.9,17.1-42.1,17.1c-34.1,0-58-23.6-58-57.7c0-34.1,23.4-58.4,58-58.4
		c16.1,0,31.6,5.6,42.5,17.5L1343.1,103.4z"/>
	<path d="M1378.2,8h21v176.7h-21V8z"/>
	<path d="M1530.8,184.7h-21v-17.1h-0.5c-5.4,11.7-19.4,19.9-36.5,19.9c-21.5,0-40.2-12.9-40.2-42.3V73.9h21v65.5
		c0,20.8,11.9,28.5,25.2,28.5c17.5,0,30.9-11.2,30.9-36.9v-57h21V184.7z"/>
	<path d="M1562.6,8h21v81.8h0.5c7.5-11.5,22.7-18.7,38.6-18.7c34.1,0,56.3,25,56.3,58.2c0,32.7-22,58.2-56.3,58.2
		c-15,0-30.4-6.8-38.6-18.7h-0.5v15.9h-21V8z M1656.6,129.3c0-22.4-14-38.6-36.5-38.6c-22.4,0-36.5,16.1-36.5,38.6
		c0,22.4,14,38.6,36.5,38.6C1642.5,167.9,1656.6,151.8,1656.6,129.3z"/>
</g>
</svg>
